<svg width="50" height="50" viewBox="0 0 50 50" fill="none" xmlns="http://www.w3.org/2000/svg">
<rect width="50" height="50" fill="url(#paint0_linear_566_329)"/>
<path fill-rule="evenodd" clip-rule="evenodd" d="M25 32.3333C29.0501 32.3333 32.3333 29.0501 32.3333 25C32.3333 20.9499 29.0501 17.6667 25 17.6667C20.9499 17.6667 17.6667 20.9499 17.6667 25C17.6667 29.0501 20.9499 32.3333 25 32.3333ZM25 36C31.0751 36 36 31.0751 36 25C36 18.9249 31.0751 14 25 14C18.9249 14 14 18.9249 14 25C14 31.0751 18.9249 36 25 36Z" fill="white"/>
<defs>
<linearGradient id="paint0_linear_566_329" x1="24.6528" y1="4.08747e-07" x2="24.6528" y2="50" gradientUnits="userSpaceOnUse">
<stop stop-color="#61FD7D"/>
<stop offset="1" stop-color="#26D044"/>
</linearGradient>
</defs>
</svg>
