<svg width="50" height="50" viewBox="0 0 50 50" fill="none" xmlns="http://www.w3.org/2000/svg">
<rect width="50" height="50" fill="#F7C00D"/>
<path fill-rule="evenodd" clip-rule="evenodd" d="M29.875 29.8333V19.9167C29.875 17.1783 27.6551 14.9583 24.9167 14.9583C22.1783 14.9583 19.9583 17.1783 19.9583 19.9167V29.8333C19.9583 32.5717 22.1783 34.7917 24.9167 34.7917C27.6551 34.7917 29.875 32.5717 29.875 29.8333ZM24.9167 10C19.4398 10 15 14.4398 15 19.9167V29.8333C15 35.3102 19.4398 39.75 24.9167 39.75C30.3935 39.75 34.8333 35.3102 34.8333 29.8333V19.9167C34.8333 14.4398 30.3935 10 24.9167 10Z" fill="white"/>
</svg>
